<svg id="Capa_1" data-name="Capa 1" xmlns="http://www.w3.org/2000/svg" viewBox="0 0 29 29"><defs><style>.cls-1{fill:#006;}.cls-2{fill:#fff;}</style></defs><circle class="cls-1" cx="14.5" cy="14.5" r="14.5"/><path class="cls-2" d="M5.5,13a7.39,7.39,0,0,1,14.67-1.33,7.19,7.19,0,0,1-1.27,5.56c-.12.17-.1.25,0,.39q2.14,2.12,4.27,4.26a1,1,0,0,1-.43,1.63,1,1,0,0,1-1-.3q-2.06-2.07-4.12-4.12c-.05-.06-.11-.1-.15-.16s-.16-.12-.28,0A7.38,7.38,0,0,1,5.7,14.6c-.06-.27-.11-.55-.15-.82A4.92,4.92,0,0,1,5.5,13Zm7.39,5.39a5.47,5.47,0,1,0-5.46-5.47A5.46,5.46,0,0,0,12.89,18.35Z"/></svg>