<?xml version="1.0" encoding="utf-8"?>
<!-- Generator: Adobe Illustrator 25.4.1, SVG Export Plug-In . SVG Version: 6.00 Build 0)  -->
<svg version="1.1" id="Capa_1" xmlns="http://www.w3.org/2000/svg" xmlns:xlink="http://www.w3.org/1999/xlink" x="0px" y="0px"
	 viewBox="0 0 29 29" style="enable-background:new 0 0 29 29;" xml:space="preserve">
<style type="text/css">
	.st0{fill:#000066;}
	.st1{fill:none;stroke:#FFFFFF;stroke-width:1.5;stroke-miterlimit:10;}
</style>
<circle class="st0" cx="14.5" cy="14.5" r="14.5"/>
<path class="st1" d="M5.5,12.6v-1.2c0,0,0-0.1,0-0.1C5.6,10.1,6,9,6.8,8.1c1-1.3,2.6-2,4.2-1.8c1.3,0.2,2.5,0.8,3.3,1.7
	c0.1,0.1,0.2,0.1,0.3,0c1-1,2.3-1.7,3.7-1.8c1-0.1,2,0.2,2.9,0.8c1.1,0.8,1.8,2,2.1,3.3c0.4,1.7,0.2,3.5-0.6,5c-0.7,1.5-1.8,2.9-3,4
	c-1.5,1.3-3.1,2.4-4.8,3.3c-0.2,0.1-0.5,0.1-0.7,0c-1.2-0.7-2.4-1.4-3.5-2.2c-1.6-1.2-3-2.6-4-4.4c-0.5-0.8-0.8-1.8-1-2.7
	C5.6,13.1,5.6,12.8,5.5,12.6z"/>
</svg>
