<?xml version="1.0" encoding="utf-8"?>
<!-- Generator: Adobe Illustrator 25.4.1, SVG Export Plug-In . SVG Version: 6.00 Build 0)  -->
<svg version="1.1" id="Capa_1" xmlns="http://www.w3.org/2000/svg" xmlns:xlink="http://www.w3.org/1999/xlink" x="0px" y="0px"
	 viewBox="0 0 29 29" style="enable-background:new 0 0 29 29;" xml:space="preserve">
<style type="text/css">
	.st0{fill:#000066;}
	.st1{fill:#FFFFFF;}
</style>
<circle class="st0" cx="14.5" cy="14.5" r="14.5"/>
<g>
	<path class="st1" d="M5.5,15.5c0-1.4,0-2.7,0-4.1c0-0.4,0.2-0.6,0.5-0.7c2.3-1,4.6-2.1,6.9-3.1c0.3-0.1,0.5-0.1,0.7,0
		c0.4,0.2,0.8,0.4,1.2,0.5c0.1,0.1,0.2,0,0.2-0.1c0.9-1.7,2.3-2.5,4.2-2.5c2.2,0.1,4,1.8,4.2,4c0.2,1.9-0.7,3.6-2.4,4.5
		c-0.1,0.1-0.1,0.1-0.1,0.2c0,1.8,0,3.5,0,5.3c0,0.4-0.1,0.6-0.5,0.8c-2.3,1-4.6,2.1-6.9,3.1c-0.3,0.1-0.5,0.1-0.7,0
		c-2.3-1-4.6-2.1-6.9-3.1c-0.3-0.2-0.5-0.4-0.5-0.8C5.5,18.2,5.5,16.8,5.5,15.5z M6.8,12.3c0,2.3,0,4.6,0,6.8c0,0.1,0.1,0.1,0.1,0.2
		c1.2,0.6,2.5,1.1,3.7,1.7c0.6,0.3,1.3,0.6,2,0.9c0,0,0-0.1,0-0.1c0-2.2,0-4.5,0-6.7c0-0.1-0.1-0.1-0.1-0.2
		c-0.9-0.4-1.7-0.8-2.6-1.2C8.9,13.2,7.8,12.8,6.8,12.3z M13.9,21.8C13.9,21.8,13.9,21.8,13.9,21.8c1.9-0.9,3.8-1.7,5.7-2.6
		c0.1,0,0.1-0.1,0.1-0.2c0-1.5,0-3,0-4.5c0-0.1-0.1-0.2-0.2-0.1c-1,0.1-2-0.1-2.9-0.7c-0.1-0.1-0.2-0.1-0.3,0
		c-0.8,0.4-1.5,0.7-2.3,1c-0.1,0.1-0.2,0.1-0.2,0.3c0,0.5,0,1,0,1.5C13.9,18.4,13.9,20.1,13.9,21.8z M19,13.2c1.8,0,3.2-1.4,3.2-3.2
		c0-1.8-1.4-3.2-3.2-3.2c-1.8,0-3.2,1.4-3.2,3.2C15.8,11.8,17.2,13.2,19,13.2z M7.7,11.3c0.1,0,0.1,0.1,0.1,0.1
		c1.7,0.8,3.5,1.6,5.2,2.4c0.1,0,0.2,0,0.3,0c0.7-0.3,1.3-0.6,2-0.9c0.1-0.1,0.1-0.1,0-0.2c-0.7-0.9-1-2-0.8-3.1
		c0-0.1,0-0.2-0.1-0.2c-0.4-0.2-0.7-0.3-1.1-0.5c-0.1,0-0.2,0-0.3,0C11.3,9.7,9.5,10.5,7.7,11.3z"/>
	<path class="st1" d="M19.6,8.6c0,0.2,0,0.4,0,0.6c0,0.1,0,0.1,0.1,0.1c0.4,0,0.7,0,1.1,0c0.4,0,0.7,0.3,0.7,0.6
		c0,0.4-0.3,0.6-0.7,0.7c-0.4,0-0.7,0-1.1,0c-0.2,0-0.2,0-0.2,0.2c0,0.4,0,0.7,0,1.1c0,0.4-0.3,0.7-0.6,0.7c-0.4,0-0.6-0.3-0.6-0.7
		c0-0.4,0-0.7,0-1.1c0-0.1,0-0.1-0.1-0.1c-0.4,0-0.7,0-1.1,0c-0.4,0-0.7-0.3-0.7-0.6c0-0.4,0.3-0.6,0.7-0.6c0.3,0,0.7,0,1,0
		c0.2,0,0.2-0.1,0.2-0.2c0-0.3,0-0.7,0-1c0-0.4,0.3-0.7,0.6-0.7c0.4,0,0.6,0.3,0.6,0.7C19.7,8.3,19.6,8.5,19.6,8.6z"/>
</g>
</svg>
