<?xml version="1.0" encoding="utf-8"?>
<!-- Generator: Adobe Illustrator 25.4.1, SVG Export Plug-In . SVG Version: 6.00 Build 0)  -->
<svg version="1.1" id="Capa_1" xmlns="http://www.w3.org/2000/svg" xmlns:xlink="http://www.w3.org/1999/xlink" x="0px" y="0px"
	 viewBox="0 0 24 24" style="enable-background:new 0 0 24 24;" xml:space="preserve">
<style type="text/css">
	.st0{fill:#FFFFFF;}
</style>
<g>
	<path class="st0" d="M9.5,12.4H7v2.4h2.4c0.4,0,1-0.1,1-1.1C10.4,12.4,9.5,12.4,9.5,12.4z"/>
	<path class="st0" d="M10.1,9.9C10.1,9,9.5,9,9.5,9H7v2h2.4C9.8,11,10.1,10.9,10.1,9.9z"/>
	<path class="st0" d="M15.9,11c-1.3,0-1.5,1.4-1.5,1.4h2.8C17.3,12.4,17.3,11,15.9,11z"/>
	<path class="st0" d="M19.5,0H4.5C2,0,0,2,0,4.5v15.1C0,22,2,24,4.5,24h15.1c2.5,0,4.5-2,4.5-4.5V4.5C24,2,22,0,19.5,0z M14.1,7.9
		h3.6v1.1h-3.6V7.9z M12.3,13.7c0,2.7-2.7,2.7-2.7,2.7H5.1v-9h4.5c1.4,0,2.4,0.8,2.4,2.4c0,1.6-1.3,1.7-1.3,1.7
		C12.4,11.5,12.3,13.7,12.3,13.7z M18.9,13.6h-4.5c0,0.1,0,0.2,0,0.3c0.1,0.8,0.7,1.4,1.5,1.3c1.4,0,1.4-1,1.4-1h1.5
		c0,2.6-2.9,2.4-2.9,2.4c-3.5,0-3.3-3.4-3.3-3.4s0-3.4,3.3-3.4C19.4,9.7,18.9,13.6,18.9,13.6z"/>
</g>
</svg>
