<?xml version="1.0" encoding="utf-8"?>
<!-- Generator: Adobe Illustrator 25.4.1, SVG Export Plug-In . SVG Version: 6.00 Build 0)  -->
<svg version="1.1" id="Capa_1" xmlns="http://www.w3.org/2000/svg" xmlns:xlink="http://www.w3.org/1999/xlink" x="0px" y="0px"
	 viewBox="0 0 24 24" style="enable-background:new 0 0 24 24;" xml:space="preserve">
<style type="text/css">
	.st0{fill:#FFFFFF;}
</style>
<path class="st0" d="M19.5,0H4.5C2,0,0,2,0,4.5v15.1C0,22,2,24,4.5,24h15.1c2.5,0,4.5-2,4.5-4.5V4.5C24,2,22,0,19.5,0z M8.6,18.1
	H5.9V9.3h2.7V18.1z M8.6,7.3c0,0.7-0.5,1.3-1.2,1.3c-0.1,0-0.1,0-0.2,0C6.6,8.7,6,8.1,5.9,7.4c0,0,0,0,0,0c0-0.8,0.6-1.4,1.3-1.4
	c0,0,0,0,0,0C8,5.9,8.6,6.5,8.6,7.3C8.6,7.2,8.6,7.3,8.6,7.3z M18.1,18.1h-2.7v-4.6c0-1.1-0.4-1.9-1.3-1.9c-0.7,0-1.1,0.6-1.3,1.1
	c-0.1,0.2-0.1,0.4-0.1,0.7v4.8H10v-5.8c0-1-0.1-1.9-0.1-2.6h2.4l0.1,1.1h0.1c0.6-0.9,1.5-1.4,2.6-1.3c1.7,0,3,1.1,3,3.7V18.1z"/>
</svg>
